<?xml version="1.0" standalone="no"?><!DOCTYPE svg PUBLIC "-//W3C//DTD SVG 1.1//EN" "http://www.w3.org/Graphics/SVG/1.1/DTD/svg11.dtd"><svg t="1642564253395" class="icon" viewBox="0 0 1024 1024" version="1.1" xmlns="http://www.w3.org/2000/svg" p-id="26006" xmlns:xlink="http://www.w3.org/1999/xlink" width="128" height="128"><defs><style type="text/css">@font-face { font-family: yourDictFontAwesome; src: url("chrome-extension://dmckmhkomggmpalekfadjibdcknieljf/lib/fontawesome-webfont.ttf") format("truetype"); font-weight: normal; font-style: normal; }
</style></defs><path d="M894.88995 851.353046C975.11367 760.942467 1023.982345 642.089895 1023.982345 511.991173c0-135.359873-52.893985-258.520232-138.979121-350.166653v-0.017655c-0.070619-0.105929-0.176549-0.141239-0.229513-0.229513C795.104636 66.25872 669.472595 5.243496 529.734315 0.459027l-0.017655-0.017655-9.975-0.264823C517.164049 0.088274 514.586438 0 511.991173 0s-5.172876 0.088274-7.750487 0.176549l-9.939691 0.264823-0.017655 0.017655c-139.73828 4.784469-265.370321 65.799693-355.039396 161.118325-0.070619 0.088274-0.176549 0.123584-0.229513 0.229513l-0.017655 0.03531C52.893985 253.47094 0 376.631299 0 511.991173c0 130.098722 48.868675 248.951294 129.092395 339.361873 0.105929 0.158894 0.105929 0.335442 0.229513 0.494336 0.317788 0.441372 0.776814 0.65323 1.112257 1.059292 90.145756 100.773987 219.485319 165.690936 363.83152 170.634299l0.017655 0.017655 9.939691 0.264823c2.595266 0.070619 5.172876 0.158894 7.768142 0.158894s5.172876-0.088274 7.750487-0.176549l9.93969-0.264823 0.017655-0.017654c144.505095-4.961018 273.985897-70.001552 364.131653-170.987397 0.229513-0.300133 0.600266-0.388407 0.812124-0.706195 0.141239-0.141239 0.141239-0.317788 0.247168-0.476681zM35.751108 529.646041h211.911381a652.453303 652.453303 0 0 0 42.636506 215.689522 650.987948 650.987948 0 0 0-143.198635 72.93226A474.474578 474.474578 0 0 1 35.751108 529.646041z m120.98881-335.036431a649.39901 649.39901 0 0 0 139.473458 68.536198A651.941311 651.941311 0 0 0 247.662489 494.336305H35.751108a474.598162 474.598162 0 0 1 120.98881-299.726695zM988.231237 494.336305H776.319857a651.941311 651.941311 0 0 0-48.550887-231.190497 649.39901 649.39901 0 0 0 139.473457-68.536198A474.598162 474.598162 0 0 1 988.231237 494.336305zM494.336305 264.16979a617.178876 617.178876 0 0 1-149.554387-22.651195A617.708522 617.708522 0 0 1 494.336305 46.679471v217.490319z m0 35.309736V494.336305H282.972225a616.61392 616.61392 0 0 1 47.067878-220.244479A652.312064 652.312064 0 0 0 494.336305 299.479526z m35.309736 0c56.124825-1.500664 111.225669-9.992655 164.313856-25.3877A616.61392 616.61392 0 0 1 741.027775 494.336305H529.646041V299.479526z m0-35.309736V46.679471a617.708522 617.708522 0 0 1 149.554387 194.839124A617.178876 617.178876 0 0 1 529.646041 264.16979z m183.769521-33.385355a651.994276 651.994276 0 0 0-139.261599-191.290495 475.304357 475.304357 0 0 1 268.053861 129.198324 614.071619 614.071619 0 0 1-128.792262 62.092171z m-402.848779 0a613.506664 613.506664 0 0 1-128.774607-62.092171A475.269047 475.269047 0 0 1 449.846037 39.49394a651.729453 651.729453 0 0 0-139.279254 191.290495zM282.972225 529.646041H494.336305v177.219565a651.164497 651.164497 0 0 0-170.56368 27.206151A616.578611 616.578611 0 0 1 282.972225 529.646041zM494.336305 742.175342v235.127532a617.390735 617.390735 0 0 1-156.845848-210.393062A615.572283 615.572283 0 0 1 494.336305 742.175342z m35.309736 235.127532V742.175342c53.653144 1.500664 106.229341 9.816107 156.845847 24.716815A617.284805 617.284805 0 0 1 529.646041 977.302874z m0-270.437268V529.646041h211.36408a616.331443 616.331443 0 0 1-40.818055 204.443371A650.193479 650.193479 0 0 0 529.646041 706.865606zM776.319857 529.646041h211.91138a474.386304 474.386304 0 0 1-111.349252 288.621782 650.987948 650.987948 0 0 0-143.198635-72.93226A651.994276 651.994276 0 0 0 776.319857 529.646041zM171.093326 844.714815a615.27215 615.27215 0 0 1 132.711643-66.753056 651.46463 651.46463 0 0 0 146.023413 206.526646c-108.595093-14.212169-205.785142-65.058189-278.735056-139.77359z m403.060637 139.77359a651.076223 651.076223 0 0 0 146.023413-206.526646 615.695867 615.695867 0 0 1 132.711643 66.753056c-72.949915 74.715401-170.139963 125.561421-278.735056 139.77359z" fill="#ffffff" p-id="26007"></path></svg>